<?xml version='1.0' encoding='ASCII' standalone='yes'?>
<svg xmlns:xlink="http://www.w3.org/1999/xlink" xmlns="http://www.w3.org/2000/svg" version="1.1" width="210" viewbox="0 0 210 297" height="297">
  <g>
    <g>
      <defs/>
      <rect fill="rgb(0,0,0)" height="20" width="3.409090909090909" x="15" y="60"/>
      <rect fill="rgb(0,0,0)" height="20" width="3.409090909090909" x="28.63636363636364" y="60"/>
      <rect fill="rgb(0,0,0)" height="20" width="3.409090909090909" x="35.45454545454546" y="60"/>
      <rect fill="rgb(0,0,0)" height="20" width="3.409090909090909" x="42.27272727272728" y="60"/>
      <rect fill="rgb(0,0,0)" height="20" width="3.409090909090909" x="49.0909090909091" y="60"/>
      <rect fill="rgb(0,0,0)" height="20" width="3.409090909090909" x="62.72727272727274" y="60"/>
      <rect fill="rgb(0,0,0)" height="20" width="3.409090909090909" x="69.54545454545456" y="60"/>
      <rect fill="rgb(0,0,0)" height="20" width="3.409090909090909" x="76.36363636363637" y="60"/>
      <rect fill="rgb(0,0,0)" height="20" width="3.409090909090909" x="83.18181818181819" y="60"/>
      <rect fill="rgb(0,0,0)" height="20" width="3.409090909090909" x="15" y="90"/>
      <rect fill="rgb(0,0,0)" height="20" width="3.409090909090909" x="35.45454545454546" y="90"/>
      <rect fill="rgb(0,0,0)" height="20" width="3.409090909090909" x="49.0909090909091" y="90"/>
      <rect fill="rgb(0,0,0)" height="20" width="3.409090909090909" x="62.72727272727274" y="90"/>
      <rect fill="rgb(0,0,0)" height="20" width="3.409090909090909" x="76.36363636363637" y="90"/>
      <rect fill="rgb(0,0,0)" height="20" width="3.409090909090909" x="15" y="120"/>
      <rect fill="rgb(0,0,0)" height="20" width="3.409090909090909" x="21.81818181818182" y="120"/>
      <rect fill="rgb(0,0,0)" height="20" width="3.409090909090909" x="28.63636363636364" y="120"/>
      <rect fill="rgb(0,0,0)" height="20" width="3.409090909090909" x="49.0909090909091" y="120"/>
      <rect fill="rgb(0,0,0)" height="20" width="3.409090909090909" x="55.90909090909092" y="120"/>
      <rect fill="rgb(0,0,0)" height="20" width="3.409090909090909" x="62.72727272727274" y="120"/>
      <rect fill="rgb(0,0,0)" height="20" width="3.409090909090909" x="76.36363636363637" y="120"/>
      <rect fill="rgb(0,0,0)" height="20" width="3.409090909090909" x="15" y="150"/>
      <rect fill="rgb(0,0,0)" height="20" width="3.409090909090909" x="21.81818181818182" y="150"/>
      <rect fill="rgb(0,0,0)" height="20" width="3.409090909090909" x="49.0909090909091" y="150"/>
      <rect fill="rgb(0,0,0)" height="20" width="3.409090909090909" x="55.90909090909092" y="150"/>
      <rect fill="rgb(0,0,0)" height="20" width="3.409090909090909" x="69.54545454545456" y="150"/>
      <rect fill="rgb(0,0,0)" height="20" width="3.409090909090909" x="15" y="180"/>
      <rect fill="rgb(0,0,0)" height="20" width="3.409090909090909" x="28.63636363636364" y="180"/>
      <rect fill="rgb(0,0,0)" height="20" width="3.409090909090909" x="35.45454545454546" y="180"/>
      <rect fill="rgb(0,0,0)" height="20" width="3.409090909090909" x="42.27272727272728" y="180"/>
      <rect fill="rgb(0,0,0)" height="20" width="3.409090909090909" x="49.0909090909091" y="180"/>
      <rect fill="rgb(0,0,0)" height="20" width="3.409090909090909" x="62.72727272727274" y="180"/>
      <rect fill="rgb(0,0,0)" height="20" width="3.409090909090909" x="69.54545454545456" y="180"/>
      <rect fill="rgb(0,0,0)" height="20" width="3.409090909090909" x="76.36363636363637" y="180"/>
      <rect fill="rgb(0,0,0)" height="20" width="3.409090909090909" x="83.18181818181819" y="180"/>
      <rect fill="rgb(0,0,0)" height="20" width="3.409090909090909" x="15" y="210"/>
      <rect fill="rgb(0,0,0)" height="20" width="3.409090909090909" x="21.81818181818182" y="210"/>
      <rect fill="rgb(0,0,0)" height="20" width="3.409090909090909" x="28.63636363636364" y="210"/>
      <rect fill="rgb(0,0,0)" height="20" width="3.409090909090909" x="55.90909090909092" y="210"/>
      <rect fill="rgb(0,0,0)" height="20" width="3.409090909090909" x="62.72727272727274" y="210"/>
      <rect fill="rgb(0,0,0)" height="20" width="3.409090909090909" x="69.54545454545456" y="210"/>
      <rect fill="rgb(0,0,0)" height="20" width="3.409090909090909" x="83.18181818181819" y="210"/>
    </g>
    <g transform="translate(105, 0) scale(1) ">
      <defs/>
      <rect fill="rgb(0,0,0)" height="20" width="3.409090909090909" x="15" y="60"/>
      <rect fill="rgb(0,0,0)" height="20" width="3.409090909090909" x="42.27272727272728" y="60"/>
      <rect fill="rgb(0,0,0)" height="20" width="3.409090909090909" x="49.0909090909091" y="60"/>
      <rect fill="rgb(0,0,0)" height="20" width="3.409090909090909" x="62.72727272727274" y="60"/>
      <rect fill="rgb(0,0,0)" height="20" width="3.409090909090909" x="69.54545454545456" y="60"/>
      <rect fill="rgb(0,0,0)" height="20" width="3.409090909090909" x="15" y="90"/>
      <rect fill="rgb(0,0,0)" height="20" width="3.409090909090909" x="21.81818181818182" y="90"/>
      <rect fill="rgb(0,0,0)" height="20" width="3.409090909090909" x="35.45454545454546" y="90"/>
      <rect fill="rgb(0,0,0)" height="20" width="3.409090909090909" x="42.27272727272728" y="90"/>
      <rect fill="rgb(0,0,0)" height="20" width="3.409090909090909" x="55.90909090909092" y="90"/>
      <rect fill="rgb(0,0,0)" height="20" width="3.409090909090909" x="69.54545454545456" y="90"/>
      <rect fill="rgb(0,0,0)" height="20" width="3.409090909090909" x="83.18181818181819" y="90"/>
      <rect fill="rgb(0,0,0)" height="20" width="3.409090909090909" x="15" y="120"/>
      <rect fill="rgb(0,0,0)" height="20" width="3.409090909090909" x="21.81818181818182" y="120"/>
      <rect fill="rgb(0,0,0)" height="20" width="3.409090909090909" x="42.27272727272728" y="120"/>
      <rect fill="rgb(0,0,0)" height="20" width="3.409090909090909" x="49.0909090909091" y="120"/>
      <rect fill="rgb(0,0,0)" height="20" width="3.409090909090909" x="55.90909090909092" y="120"/>
      <rect fill="rgb(0,0,0)" height="20" width="3.409090909090909" x="62.72727272727274" y="120"/>
      <rect fill="rgb(0,0,0)" height="20" width="3.409090909090909" x="69.54545454545456" y="120"/>
      <rect fill="rgb(0,0,0)" height="20" width="3.409090909090909" x="76.36363636363637" y="120"/>
      <rect fill="rgb(0,0,0)" height="20" width="3.409090909090909" x="83.18181818181819" y="120"/>
      <rect fill="rgb(0,0,0)" height="20" width="3.409090909090909" x="15" y="150"/>
      <rect fill="rgb(0,0,0)" height="20" width="3.409090909090909" x="42.27272727272728" y="150"/>
      <rect fill="rgb(0,0,0)" height="20" width="3.409090909090909" x="49.0909090909091" y="150"/>
      <rect fill="rgb(0,0,0)" height="20" width="3.409090909090909" x="62.72727272727274" y="150"/>
      <rect fill="rgb(0,0,0)" height="20" width="3.409090909090909" x="69.54545454545456" y="150"/>
      <rect fill="rgb(0,0,0)" height="20" width="3.409090909090909" x="15" y="180"/>
      <rect fill="rgb(0,0,0)" height="20" width="3.409090909090909" x="21.81818181818182" y="180"/>
      <rect fill="rgb(0,0,0)" height="20" width="3.409090909090909" x="35.45454545454546" y="180"/>
      <rect fill="rgb(0,0,0)" height="20" width="3.409090909090909" x="42.27272727272728" y="180"/>
      <rect fill="rgb(0,0,0)" height="20" width="3.409090909090909" x="55.90909090909092" y="180"/>
      <rect fill="rgb(0,0,0)" height="20" width="3.409090909090909" x="69.54545454545456" y="180"/>
      <rect fill="rgb(0,0,0)" height="20" width="3.409090909090909" x="83.18181818181819" y="180"/>
      <rect fill="rgb(0,0,0)" height="20" width="3.409090909090909" x="15" y="210"/>
      <rect fill="rgb(0,0,0)" height="20" width="3.409090909090909" x="28.63636363636364" y="210"/>
      <rect fill="rgb(0,0,0)" height="20" width="3.409090909090909" x="35.45454545454546" y="210"/>
      <rect fill="rgb(0,0,0)" height="20" width="3.409090909090909" x="42.27272727272728" y="210"/>
      <rect fill="rgb(0,0,0)" height="20" width="3.409090909090909" x="62.72727272727274" y="210"/>
    </g>
  </g>
</svg>
